<?xml version="1.0" encoding="utf-8" ?>
<svg xmlns="http://www.w3.org/2000/svg" xmlns:xlink="http://www.w3.org/1999/xlink" width="1023" height="1024">
	<path transform="scale(1.6 1.6)" d="M315.661 66.7088C332.57 65.0015 351.451 75.0744 353.525 93.3229L354.047 102.808C357.712 103.09 361.271 102.774 364.924 102.717L435.974 102.688C449.42 102.695 463.259 101.885 476.338 105.577C494.387 110.673 514.933 120.032 518.401 140.665C519.971 150.009 516.194 164.986 513.321 174.454L482.256 302.014C491.936 307.072 517.715 313.79 522.511 321.884C529.097 332.997 527.764 344.781 527.769 357.131L527.708 508C527.633 510.606 527.492 513.532 526.688 516.028L525.938 518.281C517.274 539.863 487.858 534.734 469.036 534.726L448.361 534.73C444.876 534.744 440.106 535.681 436.81 534.249L436.406 534.061C435.068 533.464 434.252 532.924 433.245 531.838L432.031 531.715C427.391 532.825 422.164 532.468 417.393 532.476L325.156 532.498L217.092 532.459C207.925 532.255 215.344 528.692 204.887 533.491C200.739 535.394 195.95 534.749 191.52 534.745L150.999 534.733C145.492 534.73 139.499 535.223 134.114 534.026L131.719 533.436C108.721 526.141 112.793 501.837 112.791 483.175L112.808 339.219C114.135 311.058 137.487 312.191 157.887 302.457L121.731 149.629C120.365 141.67 123.912 132.65 128.424 126.25L130.047 124.199C150.947 101.742 181.096 102.696 208.787 102.696L287.073 102.656C287.195 93.6946 287.488 87.5695 292.835 80L293.386 79.214C297.832 73.1994 305.49 68.3853 312.933 67.2798L315.661 66.7088ZM136.054 152.679L171.819 300.238L186.548 300.25L186.546 249.216C186.553 236.959 189.939 237.108 200.032 237.106L253.881 236.131C253.112 223.329 263.114 215.236 275.334 214.782L290.328 214.722C310.168 214.71 319.789 219.143 319.7 239.902L319.495 251.535L348.87 251.901C351.938 228.892 368.322 231.093 386.774 231.103C399.443 231.11 413.278 230.107 417.294 246.562L417.424 247.059C418.268 250.513 417.876 254.672 417.874 258.224L418.356 280.178L439.34 279.664C445.768 279.404 452.874 277.937 459.219 279.22C463.47 285.018 461.484 293.555 462.108 300.287L468.641 300.33C469.962 291.386 472.319 282.802 474.585 274.062L504.255 152.564L136.054 152.679Z"/>
	<defs>
		<linearGradient id="gradient_0" gradientUnits="userSpaceOnUse" x1="434.33142" y1="507.96219" x2="437.58286" y2="505.52634">
			<stop offset="0" stop-color="#865826"/>
			<stop offset="1" stop-color="#A97533"/>
		</linearGradient>
	</defs>
	<path fill="url(#gradient_0)" transform="scale(1.6 1.6)" d="M440.246 505.582L442.93 505.504L442.153 511.023L442.458 512.932L442.518 514.098L441.833 513.737C439.933 512.556 437.781 512.336 435.674 511.62L435.176 511.427C432.928 510.493 431.993 508.063 431.108 505.988L440.246 505.582Z"/>
	<path fill="#CD902E" transform="scale(1.6 1.6)" d="M440.246 505.582L442.93 505.504L442.153 511.023C441.019 509.339 440.543 507.57 440.246 505.582Z"/>
	<path fill="#7C5121" transform="scale(1.6 1.6)" d="M435.674 511.62L434.628 509.465C436.544 510.826 441.227 511.243 442.458 512.932L442.518 514.098L441.833 513.737C439.933 512.556 437.781 512.336 435.674 511.62Z"/>
	<path fill="#FA2141" transform="scale(1.6 1.6)" d="M441.922 289.191L449.016 288.99L448.823 300.333L425.669 300.021L417.766 299.828L418.287 291.761L441.922 289.191Z"/>
	<path fill="#FA2141" transform="scale(1.6 1.6)" d="M202.339 292.966L253.679 293.454C253.695 295.156 254.207 299.151 253.392 300.533L252.266 300.609L200.918 299.968C200.948 297.687 200.981 295.475 201.36 293.221L202.339 292.966Z"/>
	<path fill="#F5CF32" transform="scale(1.6 1.6)" d="M316.954 81.3508C326.146 80.5592 336.644 83.5211 339.058 93.6938L339.193 94.2891C339.846 97.0971 339.749 99.9298 339.746 102.795L324.219 102.73L301 102.444C300.718 91.4536 304.916 82.6219 316.954 81.3508Z"/>
	<path fill="#F5CF32" transform="scale(1.6 1.6)" d="M376.886 300.281L363.54 300.259L363.634 266.07C363.645 247.525 359.648 245.427 378.129 245.612C377.851 251.612 377.645 255.569 377.684 261.562L377.318 294.009C377.291 295.503 377.604 299.035 376.886 300.281Z"/>
	<path fill="#55F1CE" transform="scale(1.6 1.6)" d="M280.353 300.293L268.128 300.29L267.819 234.844C267.732 229.84 272.733 229.456 276.535 229.339L280.526 229.937C280.224 232.906 280.614 235.905 280.649 238.882L280.408 249.656C280.431 252.422 280.824 255.188 280.9 257.956L280.636 284.252C280.635 289.458 281.196 295.174 280.353 300.293Z"/>
	<path fill="#FA2141" transform="scale(1.6 1.6)" d="M320.081 266.515L348.702 266.705L348.782 291.381C348.775 293.329 349.325 298.814 348.35 300.284L319.685 300.031L320.081 266.515Z"/>
	<path fill="#EDAF17" transform="scale(1.6 1.6)" d="M133.238 505.449L197.583 505.331L197.153 520.332L191.628 520.471L155.568 520.326C142.443 520.32 128.591 523.095 126.414 505.881L133.238 505.449Z"/>
	<path fill="#EDAF17" transform="scale(1.6 1.6)" d="M442.93 505.504L501.696 505.26C505.614 505.267 509.644 505.167 513.523 505.775C512.826 517.476 507.853 520.28 496.894 520.319L461.275 520.318C456.023 520.312 449.089 521.241 444.031 519.568L443.949 519.123C443.618 517.384 442.805 515.791 442.518 514.098L442.458 512.932L442.153 511.023L442.93 505.504Z"/>
	<path fill="#EDAF17" transform="scale(1.6 1.6)" d="M378.129 245.612L391.728 245.777C401.868 245.818 403.406 244.468 403.406 255.955L403.408 268.26C403.409 278.875 403.872 289.757 403.172 300.336L376.886 300.281C377.604 299.035 377.291 295.503 377.318 294.009L377.684 261.562C377.645 255.569 377.851 251.612 378.129 245.612Z"/>
	<path fill="#EDAF17" transform="scale(1.6 1.6)" d="M200.96 251.335L253.582 251.56L253.41 278.8L200.996 278.772L200.96 251.335Z"/>
	<path fill="#00B062" transform="scale(1.6 1.6)" d="M276.535 229.339C279.868 228.838 283.507 229.103 286.88 229.109L298.474 229.391C306.572 229.979 304.152 231.449 304.039 240L303.924 300.241L280.353 300.293C281.196 295.174 280.635 289.458 280.636 284.252L280.9 257.956C280.824 255.188 280.431 252.422 280.408 249.656L280.649 238.882C280.614 235.905 280.224 232.906 280.526 229.937L276.535 229.339Z"/>
	<defs>
		<linearGradient id="gradient_1" gradientUnits="userSpaceOnUse" x1="197.29355" y1="138.71591" x2="197.91986" y2="115.75014">
			<stop offset="0" stop-color="#903808"/>
			<stop offset="1" stop-color="#B0541A"/>
		</linearGradient>
	</defs>
	<path fill="url(#gradient_1)" transform="scale(1.6 1.6)" d="M218.752 116.717L251.607 116.674L256.817 137.817L176.567 137.86L137.753 137.725C146.942 121.056 174.001 117.695 190.774 117.084L218.752 116.717Z"/>
	<defs>
		<linearGradient id="gradient_2" gradientUnits="userSpaceOnUse" x1="443.45016" y1="137.90147" x2="443.1871" y2="116.60385">
			<stop offset="0" stop-color="#963F0B"/>
			<stop offset="1" stop-color="#B1551A"/>
		</linearGradient>
	</defs>
	<path fill="url(#gradient_2)" transform="scale(1.6 1.6)" d="M404.519 116.722L437.411 116.731C455.847 116.749 493.249 117.483 502.458 137.803L482.221 137.842L384.939 137.529L388.824 117.19L404.519 116.722Z"/>
	<path fill="#481400" transform="scale(1.6 1.6)" d="M267.317 116.581L374.697 116.885L371.45 134.925L371.168 137.819L288.479 137.789C283.696 137.668 275.004 137.787 270.999 137.187L267.317 116.581Z"/>
	<path fill="#481400" transform="scale(1.6 1.6)" d="M210.911 505.012L430.171 505.936C429.734 509.241 432.495 515.257 431.785 516.854C425.958 517.81 419.883 517.489 414 517.482L379.949 518.449L211.182 518.4L210.911 505.012Z"/>
	<path fill="#A04314" transform="scale(1.6 1.6)" d="M180.414 314.204L458.785 314.081C469.455 314.094 474.669 314.119 484.454 318.187L504.964 327.157L460.234 326.998L135.451 327.465C138.285 326.404 140.995 324.988 143.783 323.806L159.046 317.727C161.779 316.674 164.946 315.159 167.865 314.891L180.414 314.204Z"/>
	<path fill="#481400" transform="scale(1.6 1.6)" d="M214.332 341.713C223.009 342.548 232.15 342.009 240.879 342.011L486.423 342C495.02 342 504.61 341.215 513.042 342.867C514.329 351.213 513.636 360.022 513.69 368.462L513.799 491.608C504.293 490.581 494.215 491.238 484.648 491.237L426.406 491.185L158.907 491.228C148.341 491.233 137.366 490.628 126.866 491.777L127.087 363.27C127.086 356.316 126.689 349.323 127.459 342.396L214.332 341.713Z"/>
	<path transform="scale(1.6 1.6)" d="M317.363 356.345C329.537 355.108 340.982 363.907 343.353 375.951C344.236 380.439 344.025 385.162 344.019 389.718C343.999 405.906 342.994 420.406 324.192 423.982C320.94 424.209 317.074 424.587 313.921 423.626L313.438 423.469C301.404 419.719 297.575 411.106 297.527 399.71L297.514 389.375C297.454 373.873 297.927 358.722 317.363 356.345Z"/>
	<path fill="#FEE6AF" transform="scale(1.6 1.6)" d="M320.089 370.115C324.352 370.377 327.632 372.814 329.017 376.96L329.173 377.452C330.136 380.359 329.711 383.388 329.697 386.395L329.36 398.479C328.888 404.781 326.725 409.071 319.789 409.783C315.668 408.672 312.306 406.279 310.979 401.995L310.851 401.562C309.535 397.225 309.501 384.949 310.201 380.496L310.286 380C311.152 374.662 314.493 370.737 320.089 370.115Z"/>
</svg>
